<svg xmlns="http://www.w3.org/2000/svg" width="400" height="127" xmlns:v="https://vecta.io/nano"><path d="M85.675 104.498c-4.014 0-7.336 3.391-7.336 7.613s3.253 7.612 7.336 7.612c4.014 0 7.335-3.39 7.335-7.612s-3.252-7.613-7.335-7.613zm0 11.627c-2.076 0-3.737-1.8-3.737-4.014s1.66-4.014 3.737-4.014 3.737 1.8 3.737 4.014c.069 2.214-1.661 4.014-3.737 4.014zm-46.021-11.211h-2.699a.69.69 0 0 0-.554.415l-2.214 6.99-3.806-7.475c-.145-.204-.374-.331-.623-.346h-.277c-.249.015-.478.142-.623.346l-3.806 7.474-2.215-6.99a.69.69 0 0 0-.553-.414h-2.7a.42.42 0 0 0-.414.622l4.429 13.842a.69.69 0 0 0 .553.416h.415c.249-.015.478-.142.623-.346l4.499-8.79 4.498 8.79c.145.204.374.331.623.346h.415c.208 0 .484-.208.554-.416l4.429-13.84c0-.347-.208-.623-.554-.623zm6.367 0h-2.7a.62.62 0 0 0-.622.622v13.15a.62.62 0 0 0 .623.622h2.699a.62.62 0 0 0 .623-.623v-13.149a.62.62 0 0 0-.623-.622zm11.903-.416c-1.869 0-3.599.83-4.844 2.146l-.485-1.315a.69.69 0 0 0-.553-.415h-1.246a.62.62 0 0 0-.623.622v20.762a.62.62 0 0 0 .623.623h2.699a.62.62 0 0 0 .623-.623V119.1c1.176.416 2.422.623 3.737.623 3.806 0 6.92-3.39 6.92-7.612.07-4.222-3.045-7.613-6.851-7.613zm-.761 11.627c-1.108 0-2.215-.277-3.045-.83v-5.468a3.52 3.52 0 0 1 3.045-1.8c2.007 0 3.667 1.8 3.667 4.015 0 2.283-1.66 4.083-3.667 4.083zm17.716-11.627c-2.63 0-4.152 2.146-4.152 2.146l-.485-1.315a.69.69 0 0 0-.553-.415h-1.246a.62.62 0 0 0-.623.622v13.15a.62.62 0 0 0 .623.622h2.699a.62.62 0 0 0 .623-.623v-9.204c1.591-1.938 3.598-1.315 4.014-1.107.415.138.692-.07.83-.346s.692-1.661.969-2.146c.207-.484-.139-1.384-2.7-1.384zM45.19 98.132c-1.176-.346-2.353.415-2.699 1.591a2.2 2.2 0 0 0 1.523 2.7c1.176.345 2.353-.416 2.699-1.592s-.346-2.353-1.523-2.7zm-31.903 21.106c-.242.123-.497.216-.761.278-.277.069-.484.069-.83.069-.623 0-1.177-.208-1.523-.623a2.42 2.42 0 0 1-.554-1.522H9.55a4.54 4.54 0 0 1-1.868 1.73c-.83.415-1.73.623-2.769.623-.83 0-1.522-.139-2.145-.416s-.969-.623-1.384-1.038-.692-.9-.9-1.453a4.29 4.29 0 0 1-.276-1.592 5.28 5.28 0 0 1 .207-1.453c.139-.484.415-.969.83-1.384s.9-.761 1.523-1.107c.623-.277 1.453-.485 2.422-.554l4.291-.277v-1.038c0-.346-.07-.761-.138-1.107a1.64 1.64 0 0 0-.623-1.038c-.277-.208-.554-.415-.9-.554s-.83-.207-1.453-.207-1.177.069-1.592.207-.761.346-.969.623c-.484.484-.692 1.038-.692 1.73H.83a4.28 4.28 0 0 1 .346-1.73 4.07 4.07 0 0 1 .9-1.315 5.08 5.08 0 0 1 1.869-1.176 7.24 7.24 0 0 1 2.491-.416c1.384 0 2.491.277 3.322.762.83.553 1.384 1.176 1.73 2.007.277.692.415 1.384.415 2.214v6.99c0 .346.07.623.208.761.15.139.349.213.553.208h.416l.207-.07v1.869zm-3.737-6.85l-3.806.207c-.346 0-.692.07-1.107.208-.346.138-.692.277-1.038.484-.287.218-.544.475-.762.762-.207.346-.276.692-.276 1.176 0 .623.207 1.246.622 1.73s1.177.761 2.146.761a4.29 4.29 0 0 0 1.591-.276c.485-.208.97-.485 1.315-.9.416-.415.762-.969.9-1.523.208-.553.277-1.176.277-1.73v-.9h.138zm101.315 2.145c-.07.761-.208 1.453-.484 2.076a6.31 6.31 0 0 1-1.177 1.592c-.484.484-1.107.9-1.8 1.176s-1.452.416-2.352.416c-1.315 0-2.353-.277-3.183-.762-.83-.553-1.523-1.176-2.007-1.937a7.21 7.21 0 0 1-.9-2.077c-.208-.83-.277-1.73-.277-2.837s.07-2.007.277-2.837a6.26 6.26 0 0 1 .9-2.076c.484-.762 1.176-1.385 2.007-1.938s1.868-.761 3.183-.761c.83 0 1.592.138 2.284.415s1.245.623 1.73 1.107a6.31 6.31 0 0 1 1.176 1.592c.277.623.485 1.315.554 2.076h-2.422c-.07-.484-.208-.9-.346-1.315-.208-.346-.416-.692-.692-.969-.292-.286-.648-.5-1.038-.623a4.03 4.03 0 0 0-1.315-.207c-.554 0-1.038.069-1.384.277-.416.207-.762.415-1.038.692a3.43 3.43 0 0 0-1.108 1.937c-.207.83-.277 1.661-.277 2.56s.07 1.731.277 2.561.554 1.454 1.108 1.938c.346.277.692.485 1.038.692.415.208.83.277 1.384.277.484 0 .969-.07 1.384-.277s.761-.415 1.038-.692.484-.553.623-.9.276-.76.346-1.245h2.491v.069zm13.149-2.353c0 1.107-.139 2.215-.415 3.183-.277 1.039-.83 1.869-1.592 2.7a8.78 8.78 0 0 1-1.869 1.245 6.56 6.56 0 0 1-2.422.485c-.9 0-1.73-.139-2.422-.485a5.53 5.53 0 0 1-1.868-1.246c-.762-.76-1.315-1.66-1.592-2.699a12.22 12.22 0 0 1-.415-3.183c0-1.107.138-2.214.415-3.183.277-1.038.83-1.869 1.592-2.7a8.79 8.79 0 0 1 1.868-1.245 6.56 6.56 0 0 1 2.422-.484c.9 0 1.73.138 2.422.484a5.53 5.53 0 0 1 1.869 1.246c.761.761 1.315 1.66 1.592 2.699.276.969.415 2.007.415 3.183zm-2.422 0c0-.83-.07-1.66-.277-2.491a4.62 4.62 0 0 0-1.038-2.007c-.277-.277-.692-.554-1.107-.761s-.9-.277-1.454-.277-1.038.069-1.453.277-.761.415-1.107.76c-.507.573-.863 1.263-1.038 2.008-.208.83-.277 1.591-.277 2.491 0 .83.069 1.661.277 2.491a4.61 4.61 0 0 0 1.038 2.007c.277.277.692.554 1.107.762s.9.276 1.453.276 1.038-.069 1.454-.276.76-.416 1.107-.762a4.62 4.62 0 0 0 1.038-2.007c.207-.83.277-1.66.277-2.49zm21.66 7.197v-9.135c0-.484-.069-.968-.138-1.384s-.277-.761-.484-1.038-.485-.553-.9-.692c-.44-.179-.909-.273-1.384-.277-.415 0-.83.07-1.176.277-.346.139-.692.415-.97.692a3.53 3.53 0 0 0-.968 1.8c-.141.706-.211 1.425-.208 2.145v7.682h-2.422v-9.135a8.66 8.66 0 0 0-.138-1.385c-.07-.415-.208-.76-.485-1.038-.207-.276-.484-.553-.9-.692-.44-.178-.909-.272-1.383-.276a3.15 3.15 0 0 0-1.385.346c-.415.207-.76.553-1.038.9-.376.515-.635 1.105-.76 1.73-.134.637-.204 1.286-.209 1.937v7.682h-2.352v-14.395h2.076l.207 2.076c.346-.83.9-1.453 1.661-1.799.761-.415 1.523-.623 2.353-.623 1.038 0 1.938.208 2.7.692a4.59 4.59 0 0 1 1.59 2.007c.208-.484.416-.83.762-1.176.277-.346.692-.623 1.038-.83.415-.208.83-.416 1.246-.485.415-.139.9-.139 1.315-.139 1.591 0 2.837.485 3.598 1.454s1.177 2.214 1.177 3.875v9.481h-2.422v-.276zm17.717-7.197a10.99 10.99 0 0 1-.554 3.46c-.346 1.038-.9 1.938-1.591 2.63a6.74 6.74 0 0 1-1.661 1.038c-.623.277-1.384.415-2.215.415-.415 0-.761-.069-1.176-.138s-.762-.208-1.177-.415c-.346-.139-.692-.416-1.038-.623-.277-.277-.554-.554-.761-.9v7.82h-2.422v-20.553h2.076l.138 1.868c.415-.692 1.038-1.246 1.8-1.66.83-.416 1.591-.554 2.422-.554.9 0 1.66.138 2.353.415s1.245.692 1.73 1.176c.692.692 1.176 1.592 1.522 2.63s.554 2.145.554 3.391zm-2.422 0c0-.692-.07-1.315-.208-2.007-.134-.623-.344-1.227-.623-1.8-.277-.553-.692-.968-1.245-1.314s-1.177-.484-1.938-.484c-.554 0-.969.069-1.315.276s-.692.416-.969.692c-.623.554-1.038 1.177-1.246 2.007s-.346 1.661-.346 2.56a9.98 9.98 0 0 0 .346 2.561c.208.83.623 1.454 1.246 2.007.277.277.623.485.969.692s.83.277 1.315.277c.761 0 1.453-.138 1.938-.484.553-.346.968-.761 1.245-1.246a6.89 6.89 0 0 0 .623-1.8c.141-.636.211-1.286.208-1.937zm16.193 7.059c-.241.122-.496.215-.76.277-.278.069-.485.069-.831.069-.623 0-1.177-.208-1.523-.623a2.42 2.42 0 0 1-.553-1.522h-.07a4.54 4.54 0 0 1-1.868 1.73c-.83.415-1.73.623-2.768.623-.83 0-1.523-.139-2.146-.416a4.93 4.93 0 0 1-1.522-1.038c-.415-.415-.692-.9-.9-1.453a4.29 4.29 0 0 1-.277-1.592c0-.484.07-.969.208-1.453s.415-.969.83-1.384.9-.761 1.523-1.107c.623-.277 1.453-.485 2.422-.554l4.29-.277v-1.038c0-.346-.068-.761-.138-1.107a1.64 1.64 0 0 0-.622-1.038c-.277-.208-.554-.415-.9-.554s-.83-.207-1.453-.207-1.177.069-1.592.207-.761.346-.969.623c-.484.484-.692 1.038-.692 1.73h-2.353a4.28 4.28 0 0 1 .346-1.73 4.07 4.07 0 0 1 .9-1.315 5.08 5.08 0 0 1 1.868-1.176 7.24 7.24 0 0 1 2.492-.416c1.384 0 2.491.277 3.321.762.83.553 1.385 1.176 1.73 2.007.277.692.416 1.384.416 2.214v6.99c0 .346.069.623.207.761a.79.79 0 0 0 .554.208h.415l.208-.07v1.869h.207zm-3.737-6.851l-3.806.207c-.346 0-.692.07-1.107.208-.346.138-.692.277-1.038.484a3.98 3.98 0 0 0-.761.762c-.208.346-.277.692-.277 1.176 0 .623.207 1.246.623 1.73s1.176.761 2.145.761a4.29 4.29 0 0 0 1.592-.276c.484-.208.969-.485 1.315-.9.415-.415.76-.969.9-1.523.207-.553.276-1.176.276-1.73v-.9h.138zm14.395 6.99v-9.136c0-1.107-.208-1.937-.692-2.56s-1.246-.9-2.422-.9c-.692 0-1.315.208-1.8.623a4 4 0 0 0-1.245 1.592 3.83 3.83 0 0 0-.415 1.799c-.07.692-.07 1.315-.07 1.869v6.712h-2.422v-14.394h2.076l.208 2.145c.208-.415.415-.761.761-1.107s.692-.554 1.038-.761c.415-.208.83-.346 1.246-.485s.83-.138 1.246-.138c1.66 0 2.837.484 3.667 1.384s1.246 2.214 1.246 3.875v9.482h-2.422zm9.55 2.906c-.346.9-.83 1.66-1.384 2.214s-1.384.83-2.491.83c-.623 0-1.108-.068-1.454-.138s-.622-.138-.692-.207v-2.145c.139.069.346.069.485.138s.346.07.553.07h.692a2.65 2.65 0 0 0 1.315-.347c.346-.208.623-.554.83-1.107l.9-2.422-5.674-14.395h2.699l4.221 11.35 4.014-11.35h2.491l-6.505 17.509zM16.055 14.533v51.765H31.42c7.82 0 13.287-3.876 16.401-11.558 1.661-4.221 2.491-9.273 2.491-15.155 0-8.097-1.245-14.256-3.806-18.616-2.56-4.29-7.543-6.436-15.086-6.436H16.055zM46.436 2.56c5.606 1.8 10.104 5.19 13.495 10.035a35.985 35.985 0 0 1 5.675 12.803c.968 4.567 1.522 8.927 1.522 13.149 0 10.519-2.145 19.446-6.367 26.713-5.744 9.896-14.602 14.81-26.574 14.81H0V.83h34.187c4.913.07 8.996.623 12.249 1.73zm42.837 33.287c-2.145 2.145-3.53 5.12-4.083 8.858h26.298c-.277-3.945-1.661-6.99-4.083-9.066s-5.467-3.114-9.066-3.114c-3.875.07-6.92 1.107-9.066 3.322M112.18 22.56c4.083 1.799 7.474 4.705 10.104 8.65 2.422 3.46 3.944 7.543 4.636 12.11.416 2.7.623 6.506.485 11.627h-42.56c.276 5.952 2.283 10.035 6.09 12.457 2.352 1.453 5.12 2.214 8.373 2.214 3.46 0 6.298-.83 8.512-2.63 1.8-1.522 2.215-2.283 3.114-5.536h15.64c-.415 5.052-2.283 8.512-5.674 12.111-5.26 5.675-12.526 8.512-22.007 8.512-7.751 0-14.672-2.422-20.554-7.197-5.951-4.775-8.927-12.664-8.927-23.46 0-10.173 2.63-17.924 8.027-23.391 5.398-5.398 12.388-8.097 20.9-8.097 5.121-.139 9.758.83 13.84 2.63m31.696 38.823c.346 2.699 1.038 4.637 2.077 5.813 1.937 2.007 5.467 3.045 10.588 3.045 3.045 0 5.398-.415 7.197-1.315s2.699-2.214 2.699-4.014c0-1.73-.692-3.044-2.145-3.944s-6.782-2.422-15.987-4.637c-6.643-1.66-11.349-3.737-14.048-6.159-2.768-2.422-4.083-5.952-4.083-10.519 0-5.398 2.145-10.035 6.367-13.98 4.221-3.875 10.242-5.812 17.924-5.812 7.266 0 13.218 1.453 17.854 4.36s7.267 7.958 7.959 15.155h-15.294c-.208-1.938-.762-3.53-1.661-4.706-1.73-2.076-4.568-3.114-8.65-3.114-3.323 0-5.745.485-7.198 1.592-1.384 1.038-2.145 2.214-2.145 3.668 0 1.799.761 3.045 2.283 3.806 1.523.83 6.852 2.214 15.987 4.221 6.09 1.454 10.726 3.599 13.702 6.505 3.045 2.907 4.498 6.575 4.498 11.004 0 5.813-2.145 10.519-6.436 14.187-4.36 3.668-11.003 5.467-20.069 5.467-9.204 0-15.986-1.938-20.415-5.813-4.36-3.876-6.575-8.858-6.575-14.81h15.571zm98.063 2.076c2.422-2.699 3.668-6.99 3.668-12.941 0-5.536-1.177-9.827-3.53-12.734s-5.398-4.36-9.342-4.36c-5.33 0-8.997 2.492-11.004 7.544-1.038 2.699-1.592 6.02-1.592 9.965 0 3.391.554 6.436 1.73 9.135 2.007 4.914 5.744 7.405 11.073 7.405 3.53.07 6.505-1.315 8.997-4.014m-5.19-42.076c3.736 1.523 6.712 4.36 8.996 8.443v-8.443h15.017v55.571c0 7.543-1.245 13.287-3.806 17.093-4.36 6.644-12.734 9.897-25.121 9.897-7.474 0-13.564-1.454-18.27-4.43-4.706-2.906-7.336-7.335-7.82-13.148h16.678c.415 1.8 1.107 3.045 2.076 3.875 1.661 1.384 4.43 2.076 8.305 2.076 5.467 0 9.204-1.868 11.072-5.536 1.246-2.353 1.869-6.298 1.869-11.834V71.21c-1.453 2.491-3.045 4.36-4.775 5.606-3.045 2.353-6.99 3.46-11.834 3.46-7.543 0-13.495-2.63-17.993-7.89s-6.713-12.456-6.713-21.453c0-8.72 2.145-15.986 6.505-21.937 4.29-5.952 10.45-8.859 18.34-8.859 2.768-.069 5.328.416 7.473 1.246m75.987 3.46c3.806 3.184 5.744 8.443 5.744 15.779V80h-15.71V44.43c0-3.046-.415-5.468-1.246-7.06-1.522-2.976-4.36-4.498-8.58-4.498-5.191 0-8.651 2.145-10.59 6.574-1.037 2.353-1.522 5.33-1.522 8.928v31.695h-15.294V21.522h14.74v8.582c1.939-3.045 3.807-5.19 5.537-6.505 3.114-2.353 7.128-3.53 11.972-3.53 6.229 0 11.142 1.592 14.949 4.775m11.349-2.837h15.571V80h-15.571V22.007zm15.502-7.474h-15.502V.415h15.502v14.118zm-154.118 7.474h15.502V80h-15.502V22.007zm15.502-7.474h-15.502V.415h15.502v14.118zm143.114 18.2V22.008h8.097V5.467h15.225v16.47h9.55v10.727h-9.55v31.073c0 2.422.346 3.875.9 4.498.622.623 2.49.9 5.605.9.484 0 .969 0 1.453-.07.485 0 1.038-.068 1.523-.138v11.488l-7.267.346c-7.266.208-12.18-.969-14.81-3.806-1.73-1.73-2.63-4.429-2.63-8.166V32.734h-8.096zm46.09-25.743c-.415-.139-1.038-.208-1.8-.208h-.691v3.391h1.176c.692 0 1.246-.138 1.661-.415s.623-.761.623-1.384c0-.692-.346-1.177-.969-1.384zm-5.536 9.342V4.706h5.673c.97.07 1.661.277 2.284.623 1.038.553 1.592 1.453 1.592 2.768 0 .969-.277 1.66-.83 2.076-.554.484-1.246.692-2.008.83.693.139 1.315.346 1.661.693.692.553 1.038 1.453 1.038 2.63v1.037c0 .07 0 .208.07.346 0 .139 0 .208.069.346l.138.346h-2.906c-.07-.346-.139-.9-.208-1.591 0-.692-.07-1.177-.208-1.454a1.248 1.248 0 0 0-.83-.83c-.277-.138-.554-.208-1.038-.208l-.623-.069h-.623v4.083h-3.252zM383.045 4.43c-1.66 1.73-2.491 3.737-2.491 6.09 0 2.422.83 4.498 2.56 6.228 1.661 1.73 3.737 2.561 6.09 2.561 2.422 0 4.43-.9 6.09-2.56 1.661-1.73 2.56-3.807 2.56-6.16s-.83-4.36-2.49-6.09-3.738-2.63-6.16-2.63c-2.422-.069-4.429.762-6.159 2.561zm13.495 13.633c-2.007 2.007-4.498 2.976-7.336 2.976-2.976 0-5.467-1.038-7.474-3.045s-3.045-4.498-3.045-7.474c0-3.045 1.107-5.606 3.253-7.612C384.014.97 386.436.07 389.135.07c2.907 0 5.329 1.038 7.405 3.114 2.007 2.007 3.114 4.499 3.114 7.405.07 2.907-.969 5.398-3.114 7.474z"/></svg>