<svg xmlns="http://www.w3.org/2000/svg" height="185" width="400" fill="#fff" xmlns:v="https://vecta.io/nano"><path d="M71.445.204s-5.859 17.367-6.22 17.367c0 0-4.152 11.8-18.402 11.8H11.751L.286 59.262h49.641c-.341 0-37.135 102.054-37.135 102.054s-7.99 22.901 11.835 22.901h93.719l10.761-29.512h-65.61s-10.068-1.034-6.589-11.125l26.743-72.89s4.476-11.429 18.051-11.429h147.876l11.15-29.891H98.898L109.331.203H71.445zM351.837 72.08c-10.764 0-16.121 8.991-16.121 8.991l-15.46 42.747c-3.289 8.989 6.955 9.885 6.955 9.885h20.293l-7.33 19.602c-.524 1.343-1.329 1.401-1.329 1.401h-68.402l-10.774 29.512h87.836c12.691 0 13.386-6.771 13.386-6.771l22.73-62.129c2.078-5.9-3.984-7.304-3.984-7.304h-20.998c-1.571 0-1.39-1.076-1.39-1.076l4.333-11.961c.366-1.24 1.913-1.24 1.913-1.24l27.554.165 8.277-21.822-47.489.001zM98.942 116.047l6.466-17.894c.614-1.55 2.405-2.788 4.131-2.788h16.053c1.725 0 2.683 1.237 2.105 2.788l-6.484 17.894c-.547 1.546-2.403 2.805-4.132 2.805h-16.037c-1.689 0-2.654-1.259-2.102-2.805zm3.111-43.967c-5.142 0-10.639 3.743-12.305 8.338l-19.36 53.445c-1.665 4.637 1.119 8.336 6.265 8.336h47.951c5.094 0 10.6-3.699 12.263-8.336l19.348-53.445c1.708-4.595-1.145-8.338-6.22-8.338zm172.37 23.286h16.954c1.745 0 2.682 1.237 2.154 2.788l-6.528 17.894c-.551 1.546-2.376 2.805-4.128 2.805h-17.038zM256.006 72.08l-40.792 112.137 29.322-.042 15.48-41.976h32.823c5.085 0 10.6-3.699 12.238-8.336l19.37-53.445c1.665-4.595-1.111-8.338-6.246-8.338zm-64.219 23.286h16.974c1.712 0 2.691 1.237 2.118 2.788l-6.532 17.894c-.503 1.546-2.394 2.805-4.081 2.805h-17.059zM173.375 72.08L132.58 184.217l29.363-.042 15.423-41.976h32.8c5.108 0 10.637-3.699 12.288-8.336l19.377-53.445c1.651-4.595-1.138-8.338-6.3-8.338z"/></svg>